<svg width="40" height="40" fill="none" xmlns="http://www.w3.org/2000/svg"><path d="M33.14 8.685a.624.624 0 00-.623.626v28.81a.625.625 0 01-.622.627H7.839a.625.625 0 01-.622-.627v-5.428a.624.624 0 00-.622-.626.624.624 0 00-.623.626v5.428C5.972 39.157 6.81 40 7.84 40h24.056a1.875 1.875 0 001.866-1.879V9.311a.624.624 0 00-.622-.626zM31.895 0H7.839c-1.03 0-1.867.843-1.867 1.879v26.806c0 .346.279.626.623.626.343 0 .622-.28.622-.626V1.879c0-.345.279-.626.622-.626h24.056c.343 0 .622.28.622.626V5.97c0 .346.278.626.622.626s.622-.28.622-.626V1.879A1.875 1.875 0 0031.895 0z" fill="#fff"/><path d="M30.485 2.672H9.249a.624.624 0 00-.622.627v12.693c0 .346.278.626.622.626h21.236c.343 0 .622-.28.622-.626V3.299a.624.624 0 00-.622-.627zm-.622 12.693H9.87V3.925h19.991v11.44zm.622 2.673h-9.29a.624.624 0 00-.623.626v8.017c0 .345.278.626.622.626h9.29c.344 0 .623-.28.623-.626v-8.017a.624.624 0 00-.622-.626zm-.622 8.016h-8.047V19.29h8.047v6.764zM18.54 18.038H9.25a.624.624 0 00-.623.626v8.017c0 .345.278.626.622.626h9.29c.344 0 .623-.28.623-.626v-8.017a.624.624 0 00-.622-.626zm-.622 8.016H9.87V19.29h8.046v6.764zm12.567 2.004h-9.29a.624.624 0 00-.623.627V36.7c0 .346.278.627.622.627h9.29c.344 0 .623-.28.623-.627v-8.016a.624.624 0 00-.622-.627zm-.622 8.017h-8.047v-6.764h8.047v6.764zM18.54 28.058H9.25a.624.624 0 00-.623.627V36.7c0 .346.278.627.622.627h9.29c.344 0 .623-.28.623-.627v-8.016a.624.624 0 00-.622-.627zm-.622 8.017H9.87v-6.764h8.046v6.764z" fill="#fff"/><path d="M15.885 22.046h-1.369v-1.378a.624.624 0 00-.622-.626.624.624 0 00-.622.626v1.378h-1.369a.624.624 0 00-.622.626c0 .346.279.627.622.627h1.37v1.378c0 .345.278.626.621.626.344 0 .622-.28.622-.627V23.3h1.37c.343 0 .621-.28.621-.627a.624.624 0 00-.622-.626zm11.945 0h-3.98a.624.624 0 00-.623.626c0 .346.279.627.623.627h3.981c.344 0 .622-.28.622-.627a.624.624 0 00-.622-.626zM14.774 32.693l1.551-1.561a.63.63 0 000-.886.62.62 0 00-.88 0l-1.55 1.562-1.552-1.562a.62.62 0 00-.88 0 .63.63 0 000 .886l1.552 1.561-1.552 1.562a.635.635 0 00-.033.85c.233.273.66.29.913.035l1.551-1.561 1.551 1.561c.253.255.68.238.913-.036a.635.635 0 00-.033-.85l-1.55-1.56zm13.496-2.447a.62.62 0 00-.88 0l-3.981 4.009c-.384.385-.105 1.069.44 1.069a.617.617 0 00.44-.184l3.981-4.008a.63.63 0 000-.886zm-3.318.668l-.664-.668a.62.62 0 00-.88 0 .63.63 0 000 .886l.664.668c.253.255.68.238.913-.036a.635.635 0 00-.033-.85zm3.318 3.34l-.663-.668a.62.62 0 00-.88 0 .63.63 0 000 .886l.663.668c.253.255.68.238.913-.036a.635.635 0 00-.033-.85zm0-25.386L24.288 4.86a.62.62 0 00-.88 0l-3.981 4.008a.628.628 0 00-.182.443v4.676c0 .346.278.627.622.627h2.654c.344 0 .622-.28.622-.627v-2.046h1.41v2.046c0 .346.28.627.623.627h2.654c.344 0 .622-.28.622-.627V9.311a.629.629 0 00-.182-.443zm-1.062 4.493h-1.41v-2.046a.624.624 0 00-.622-.626H22.52a.624.624 0 00-.622.626v2.046h-1.41v-3.79l3.36-3.383 3.359 3.382v3.791zM16.989 5.528a.62.62 0 00-.88 0l-4.977 5.01c-.383.386-.104 1.07.44 1.07a.621.621 0 00.44-.184l4.977-5.01a.63.63 0 000-.886zm.663 4.008a.62.62 0 00-.88 0l-1.99 2.004a.635.635 0 00-.034.85c.233.274.66.29.913.036l1.991-2.004a.629.629 0 000-.886z" fill="#FCDB50"/></svg>