<svg width="40" height="32" fill="none" xmlns="http://www.w3.org/2000/svg"><path d="M7.8 24.727a.584.584 0 00.581-.586v-5.625a.584.584 0 00-.582-.586.584.584 0 00-.582.586v5.625c0 .323.26.586.582.586zm3.181 0a.584.584 0 00.582-.586v-5.625a.584.584 0 00-.582-.586.584.584 0 00-.582.586v5.625c0 .323.26.586.582.586zm3.104 0a.584.584 0 00.582-.586v-5.625a.584.584 0 00-.582-.586.584.584 0 00-.582.586v5.625c0 .323.26.586.582.586zm3.182-2.813a.584.584 0 00.582-.586v-2.812a.584.584 0 00-.582-.586.584.584 0 00-.582.586v2.812c0 .324.26.586.582.586z" fill="#FCDB50"/><path d="M37.91 4.844h-1.164a.584.584 0 00-.583.586c0 .323.26.586.583.586h1.163c.322 0 .583.262.583.586v23.984a.585.585 0 01-.582.586h-3.4c.065-.184.1-.38.1-.586v-1.992a.584.584 0 00-.582-.586.584.584 0 00-.582.586v1.992a.584.584 0 01-.582.586H14.336a1.877 1.877 0 00-1.144-2.484v-1.266h1.07a2.89 2.89 0 001.972-.776l5.566-5.168a2.947 2.947 0 00.938-2.153V17.07c0-.753-.61-1.367-1.358-1.367H10.399V1.758c0-.323.26-.586.582-.586h21.884c.321 0 .582.263.582.586v24.101c0 .324.26.586.582.586a.584.584 0 00.582-.586V1.758c0-.97-.783-1.758-1.746-1.758H10.981c-.963 0-1.747.789-1.747 1.758v13.945H5.121V12.54c0-.97-.783-1.758-1.746-1.758H1.668c-.963 0-1.746.789-1.746 1.758 0 .97.783 1.758 1.746 1.758h2.29v11.758c0 .714.547 1.301 1.241 1.36v1.273a1.877 1.877 0 00-1.28 1.78 1.87 1.87 0 001.862 1.876c.824 0 1.524-.542 1.769-1.29h3.291c.245.748.946 1.29 1.77 1.29h25.298c.963 0 1.747-.789 1.747-1.758V6.602c0-.97-.784-1.758-1.746-1.758zM12.027 28.688a1.877 1.877 0 00-1.187 1.195H7.55a1.876 1.876 0 00-1.187-1.195v-1.266h5.665v1.266zM1.086 12.54c0-.323.261-.586.582-.586h1.707c.321 0 .582.263.582.586v.586H1.668a.584.584 0 01-.582-.586zm4.035 13.516v-9.18H21.38c.107 0 .194.088.194.195v2.255c0 .49-.205.96-.563 1.292l-5.566 5.167c-.323.3-.744.466-1.184.466H5.316a.195.195 0 01-.194-.195zm.66 5.117a.702.702 0 01-.698-.703c0-.388.313-.703.698-.703.385 0 .699.315.699.703a.702.702 0 01-.699.703zm6.83-1.406c.385 0 .698.315.698.703a.701.701 0 01-.699.703.702.702 0 01-.698-.703c0-.388.313-.703.698-.703z" fill="#fff"/><path d="M30.343 10.508c0-.754-.609-1.367-1.358-1.367h-1.474c-.749 0-1.358.613-1.358 1.367v1.484c0 .754.61 1.367 1.358 1.367h1.474c.75 0 1.358-.613 1.358-1.367v-1.484zm-1.163 1.484a.195.195 0 01-.195.195h-1.474a.195.195 0 01-.194-.195v-1.484c0-.108.087-.195.194-.195h1.474c.108 0 .195.087.195.195v1.484zm1.163 5.078c0-.753-.609-1.367-1.358-1.367h-1.474c-.749 0-1.358.614-1.358 1.367v1.485c0 .753.61 1.367 1.358 1.367h1.474c.75 0 1.358-.614 1.358-1.367V17.07zm-1.163 1.485a.195.195 0 01-.195.195h-1.474a.195.195 0 01-.194-.195V17.07c0-.107.087-.195.194-.195h1.474c.108 0 .195.088.195.195v1.485zm-.195 3.711h-1.474c-.749 0-1.358.613-1.358 1.367v1.484c0 .754.61 1.367 1.358 1.367h1.474c.75 0 1.358-.613 1.358-1.367v-1.484c0-.754-.609-1.367-1.358-1.367zm.195 2.851a.195.195 0 01-.195.195h-1.474a.195.195 0 01-.194-.195v-1.484c0-.108.087-.195.194-.195h1.474c.108 0 .195.087.195.195v1.484zm-5.2-15.625h-9.934a.584.584 0 00-.582.586c0 .324.26.586.582.586h9.934a.584.584 0 00.582-.586.584.584 0 00-.582-.586zm-9.934 2.344a.584.584 0 00-.582.586c0 .323.26.586.582.586h3.13a.584.584 0 00.583-.586.584.584 0 00-.582-.586h-3.13zm5.459 0a.584.584 0 00-.582.586c0 .323.26.586.582.586h2.147a.584.584 0 00.582-.586.584.584 0 00-.582-.586h-2.147zm4.475 10.781h-1.32a.584.584 0 00-.581.586c0 .324.26.586.582.586h1.319a.584.584 0 00.582-.586.584.584 0 00-.582-.586zm0 2.343h-3.26a.584.584 0 00-.581.587c0 .323.26.586.582.586h3.259a.584.584 0 00.582-.586.584.584 0 00-.582-.586z" fill="#FCDB50"/></svg>